<svg width="33" height="32" viewBox="0 0 33 32" fill="none" xmlns="http://www.w3.org/2000/svg">
<path d="M25.8333 3.99992H20.26C19.7 2.45325 18.2333 1.33325 16.5 1.33325C14.7667 1.33325 13.3 2.45325 12.74 3.99992H7.16667C5.7 3.99992 4.5 5.19992 4.5 6.66658V25.3333C4.5 26.7999 5.7 27.9999 7.16667 27.9999H25.8333C27.3 27.9999 28.5 26.7999 28.5 25.3333V6.66658C28.5 5.19992 27.3 3.99992 25.8333 3.99992ZM17.8333 23.9999H15.1667V21.3333H17.8333V23.9999ZM17.8333 18.6666H15.1667V10.6666H17.8333V18.6666ZM16.5 6.66658C15.7667 6.66658 15.1667 6.06659 15.1667 5.33325C15.1667 4.59992 15.7667 3.99992 16.5 3.99992C17.2333 3.99992 17.8333 4.59992 17.8333 5.33325C17.8333 6.06659 17.2333 6.66658 16.5 6.66658Z" fill="#660099"/>
</svg>
