<svg width="33" height="32" viewBox="0 0 33 32" fill="none" xmlns="http://www.w3.org/2000/svg">
<path d="M1.83301 27.9999H7.16634V11.9999H1.83301V27.9999ZM31.1663 13.3333C31.1663 11.8666 29.9663 10.6666 28.4997 10.6666H20.0863L21.353 4.57325L21.393 4.14658C21.393 3.59992 21.1663 3.09325 20.8063 2.73325L19.393 1.33325L10.6197 10.1199C10.1263 10.5999 9.83301 11.2666 9.83301 11.9999V25.3333C9.83301 26.7999 11.033 27.9999 12.4997 27.9999H24.4997C25.6063 27.9999 26.553 27.3333 26.953 26.3733L30.9797 16.9733C31.0997 16.6666 31.1663 16.3466 31.1663 15.9999V13.3333Z" fill="#660099"/>
</svg>
