<svg width="29" height="24" viewBox="0 0 29 24" fill="none" xmlns="http://www.w3.org/2000/svg">
<path d="M19.1667 12C19.1667 10.5333 17.9667 9.33333 16.5 9.33333C15.0333 9.33333 13.8333 10.5333 13.8333 12C13.8333 13.4667 15.0333 14.6667 16.5 14.6667C17.9667 14.6667 19.1667 13.4667 19.1667 12ZM16.5 0C9.87333 0 4.5 5.37333 4.5 12H0.5L5.83333 17.3333L11.1667 12H7.16667C7.16667 6.84 11.34 2.66667 16.5 2.66667C21.66 2.66667 25.8333 6.84 25.8333 12C25.8333 17.16 21.66 21.3333 16.5 21.3333C14.4867 21.3333 12.62 20.68 11.0867 19.6L9.19333 21.52C11.22 23.0667 13.7533 24 16.5 24C23.1267 24 28.5 18.6267 28.5 12C28.5 5.37333 23.1267 0 16.5 0Z" fill="#660099"/>
</svg>
